<?xml version="1.0" encoding="utf-8"?>
<svg version="1.1" xmlns:xlink="http://www.w3.org/1999/xlink" width="31px" height="18px" xmlns="http://www.w3.org/2000/svg">
  <g transform="matrix(1 0 0 1 -10 -11 )">
    <path d="M 30.689378757515 14.7216494845361  C 30.8964595858383 14.9278350515464  31 15.1649484536082  31 15.4329896907217  C 31 15.701030927835  30.8964595858383 15.9381443298969  30.689378757515 16.1443298969072  L 29.1362725450902 17.6907216494845  C 28.9291917167669 17.8969072164948  28.6910487641951 18  28.4218436873747 18  C 28.1526386105544 18  27.9144956579826 17.8969072164948  27.7074148296593 17.6907216494845  L 15.5 5.5360824742268  L 3.29258517034068 17.6907216494845  C 3.08550434201737 17.8969072164948  2.84736138944556 18  2.57815631262525 18  C 2.30895123580494 18  2.07080828323313 17.8969072164948  1.86372745490982 17.6907216494845  L 0.31062124248497 16.1443298969072  C 0.103540414161657 15.9381443298969  0 15.701030927835  0 15.4329896907217  C 0 15.1649484536082  0.103540414161657 14.9278350515464  0.31062124248497 14.7216494845361  L 14.7855711422846 0.309278350515465  C 14.9926519706079 0.103092783505152  15.2307949231797 0  15.5 0  C 15.7692050768203 0  16.0073480293921 0.103092783505152  16.2144288577154 0.309278350515465  L 30.689378757515 14.7216494845361  Z " fill-rule="nonzero" fill="#000000" stroke="none" transform="matrix(1 0 0 1 10 11 )" />
  </g>
</svg>